# xmcd CD database file
#
# Track frame offsets:
#	150
#	14696
#	31129
#	53020
#	71606
#	89328
#	104876
#	123366
#	138649
#	155713
#	170473
#	187839
#	211100
#
# Disc length: 3061 seconds
#
# Revision: 0
# Processed by: cddbd v1.5.2PL0 Copyright (c) Steve Scherf et al.
# Submitted via: CDex 1.60beta1-cs1
#
DISCID=b50bf30d
DTITLE=Zezé di Camargo e Luciano (2006) - Diferente
DYEAR=2006
DGENRE=Sertanejo
TTITLE0=Amor Que Fica
TTITLE1=Diz Pro Meu Olhar
TTITLE2=Foi Só Engano
TTITLE3=Minha História
TTITLE4=A Saudade é Uma Pedra
TTITLE5=Tempo Perdido
TTITLE6=Nunca Mais Ficar Sozinho
TTITLE7=Tô Com a Maior Moral
TTITLE8=Que Seja Bem-Vinda
TTITLE9=Essa Noite
TTITLE10=Olha Eu Aí
TTITLE11=Hey Jude
TTITLE12=How Can I Go On
EXTD=YEAR: 2006
EXTT0=
EXTT1=
EXTT2=
EXTT3=
EXTT4=
EXTT5=
EXTT6=
EXTT7=
EXTT8=
EXTT9=
EXTT10=
EXTT11=
EXTT12=
PLAYORDER=
